<svg width="23" height="23" viewBox="0 0 23 23" fill="none" xmlns="http://www.w3.org/2000/svg">
<path d="M2.90515 5.51367V18.1777H20.0946V5.84375L19.3192 6.35449L11.6923 11.375C11.6366 11.4041 11.5886 11.4279 11.5468 11.4443C11.5428 11.4454 11.5285 11.4482 11.4999 11.4482C11.4606 11.4482 11.4485 11.4426 11.453 11.4443C11.411 11.4278 11.3626 11.4043 11.3065 11.375L3.90515 6.50195V6.16895L11.2264 10.9639L11.4999 11.1426L11.7733 10.9639L19.7714 5.74121L20.7147 5.12402C20.7257 5.18801 20.7323 5.25386 20.7323 5.32227V17.6777C20.7323 17.9798 20.6274 18.2367 20.3925 18.4707H20.3915C20.1569 18.7045 19.8991 18.8105 19.5946 18.8105H3.40515C3.10274 18.8104 2.84591 18.7045 2.61218 18.4707C2.37839 18.2369 2.27332 17.9802 2.27332 17.6777V5.32227C2.27333 5.24972 2.27958 5.17987 2.29187 5.1123L2.90515 5.51367ZM3.40515 4.18457H19.5946C19.8606 4.18464 20.0909 4.26585 20.3016 4.44336L20.3915 4.52539C20.4861 4.61993 20.5589 4.71876 20.6132 4.82227H2.39148C2.44557 4.71849 2.5188 4.62006 2.61316 4.52539V4.52441C2.84699 4.28973 3.10337 4.18467 3.40515 4.18457Z" fill="#B89352" stroke="#B89352"/>
</svg>